<svg width="512" height="512" viewBox="0 0 512 512" fill="none" xmlns="http://www.w3.org/2000/svg">
<rect width="512" height="512" fill="black"/>
<path d="M257.719 54.6849C252.081 54.6538 246.651 55.8703 242.669 58.0591L157.085 106.212C148.89 110.709 148.89 117.999 157.085 122.496L242.664 170.649C250.86 175.146 264.143 175.146 272.339 170.649L357.914 122.496C366.114 117.999 366.114 110.709 357.914 106.212L272.339 58.0591C268.459 55.928 263.207 54.7204 257.719 54.6849ZM257.502 82.4772L313.424 114.354L257.502 146.231L201.589 114.354L257.502 82.4772ZM423.399 315.862L394.013 332.288L427.363 348.546L256.01 442.579L84.6656 348.546L117.501 331.578L88.1107 315.138L40.1623 340.404C31.9667 344.901 31.9667 352.196 40.1623 356.689L241.173 466.997C249.368 471.494 262.652 471.494 270.847 466.997L471.853 356.689C480.049 352.196 480.049 344.901 471.853 340.404L423.399 315.862Z" fill="#FF0035"/>
<path d="M380.986 234.527L350.144 250.159L391.326 271.27L255.495 347.543L119.668 271.27L158.781 252.188L127.943 236.542L75.1643 263.127C66.9687 267.625 66.9687 274.914 75.1643 279.412L240.657 371.961C248.848 376.459 262.136 376.459 270.328 371.961L435.821 279.412C444.016 274.914 444.016 267.625 435.821 263.127L380.986 234.527Z" fill="#FF0035"/>
<path d="M171.146 157.499L110.664 185.544C102.464 190.041 102.464 197.331 110.664 201.829L240.635 267.74C248.831 272.237 262.115 272.237 270.31 267.74L400.281 201.829C408.477 197.331 408.477 190.041 400.281 185.544L342.956 157.845L313.553 174.391L355.791 193.686L255.473 243.322L155.163 193.686L200.581 174.063L171.146 157.499Z" fill="#FF0035"/>
</svg>
